<?xml version="1.0" standalone="no"?>
<!DOCTYPE svg PUBLIC "-//W3C//DTD SVG 20010904//EN"
 "http://www.w3.org/TR/2001/REC-SVG-20010904/DTD/svg10.dtd">
<svg version="1.0" xmlns="http://www.w3.org/2000/svg"
 width="1280.000000pt" height="640.000000pt" viewBox="0 0 1280.000000 640.000000"
 preserveAspectRatio="xMidYMid meet">
<metadata>
Created by potrace 1.15, written by Peter Selinger 2001-2017
</metadata>
<g transform="translate(0.000000,640.000000) scale(0.100000,-0.100000)"
fill="#ad7d37" stroke="none">
<path d="M8724 3711 c-2 -2 -4 -65 -4 -139 l0 -135 -37 7 c-21 3 -81 8 -133
11 -194 10 -7435 14 -7510 4 -103 -13 -160 -33 -209 -75 -58 -50 -84 -105 -85
-179 -1 -134 99 -229 264 -254 83 -12 7512 -19 7628 -7 l82 8 0 -136 0 -137
62 3 c60 3 62 4 70 36 5 17 13 32 18 32 6 0 10 6 10 14 0 18 63 86 79 86 6 0
11 4 11 9 0 7 37 21 70 26 3 0 10 3 15 6 6 3 33 5 60 5 49 -1 50 -2 53 -33 3
-31 6 -33 43 -33 24 0 58 11 89 28 47 26 50 29 50 70 l0 42 50 0 50 0 0 -56 0
-55 38 3 37 3 3 53 3 52 35 0 34 0 0 -116 c0 -106 1 -116 18 -110 121 45 132
51 132 73 0 13 5 23 11 23 20 0 49 -21 49 -35 0 -11 12 -15 40 -15 33 0 40 3
40 20 0 18 7 20 55 20 48 0 55 -2 55 -20 0 -17 7 -20 40 -20 33 0 40 4 40 19
0 11 9 21 23 25 34 9 37 8 37 -14 0 -17 7 -20 53 -20 52 0 54 1 76 40 l22 40
787 0 787 0 25 -40 c24 -38 27 -40 77 -40 46 0 53 3 53 20 0 21 24 28 35 10
10 -16 312 -13 319 3 5 10 7 10 12 0 4 -9 30 -13 78 -13 44 0 77 5 85 13 11
10 14 10 18 0 3 -7 18 -13 34 -13 19 0 29 -5 29 -15 0 -11 11 -15 40 -15 29 0
40 4 40 15 0 9 9 15 24 15 13 0 29 6 35 13 27 34 41 414 21 603 -12 116 -15
124 -51 124 -22 0 -29 5 -29 20 0 17 -7 20 -40 20 -33 0 -40 -3 -40 -20 0 -15
-7 -20 -27 -20 -16 -1 -153 -2 -306 -3 -258 -2 -277 -1 -277 16 0 14 -9 17
-53 17 -50 0 -53 -2 -77 -40 l-25 -40 -785 0 -785 0 -25 40 c-24 38 -27 40
-77 40 -46 0 -53 -3 -53 -20 0 -11 -6 -20 -12 -20 -18 1 -48 25 -48 39 0 6
-17 11 -40 11 -29 0 -40 -4 -40 -15 0 -12 -13 -15 -55 -15 -42 0 -55 3 -55 15
0 11 -11 15 -40 15 -29 0 -40 -4 -40 -15 0 -8 -7 -15 -15 -15 -8 0 -15 -4 -15
-10 0 -5 -7 -10 -15 -10 -9 0 -15 9 -15 23 0 20 -11 28 -68 50 -37 15 -71 27
-75 27 -4 0 -7 -52 -7 -115 l0 -115 -35 0 -35 0 0 55 0 55 -40 0 -40 0 0 -55
0 -55 -50 0 -50 0 0 44 c0 43 -1 45 -54 75 -33 19 -68 31 -90 31 -35 0 -36 -1
-36 -35 0 -31 -6 -38 -30 -37 -108 5 -180 32 -227 85 -36 41 -65 92 -57 99 2
3 -2 11 -11 18 -14 11 -111 21 -121 11z"/>
</g>
</svg>
